<svg xmlns="http://www.w3.org/2000/svg" width="2542" height="1101" version="1.0">
  <path fill="#FE0000" d="M255 375v120h128v110H255v240h427V736H383V605l136.8-.2 136.7-.3v-109l-136.7-.3L383 495V364h299V255H255v120zm537 175v295h127V605.2l80.8-.5c68.3-.3 82.8-.7 94.2-2.1 17.6-2.2 34.9-5.9 48-10.2 12.4-4.1 37.5-16.2 47.5-22.9 41.5-28 64.8-70.2 69.5-126.2 2.6-30.5-3.9-66.4-17.1-94-11.5-24.2-34.1-48.5-58.9-63.5-23.3-14-48.5-22.9-79.7-28-13.8-2.2-13.9-2.2-162.5-2.5l-148.8-.4V550zm268.5-184.1c50.6 6.5 75.2 29.3 73.2 67.7-1 17.3-5.7 27.6-17.6 38.5-7.8 7.2-20.6 13.8-32.6 16.8-20 5.2-22.7 5.3-95.7 5.8l-68.8.4V363.8l66.3.5c41.6.3 69.5.9 75.2 1.6zM1341 375v120h127v110h-127v240h127V605h274V495h-274V364h300V255h-427v120zm519 175v295h427V736h-300V255h-127v295z" />
</svg>